<mxfile host="app.diagrams.net" modified="2024-03-02T10:09:53.978Z" agent="Mozilla/5.0 (Macintosh; Intel Mac OS X 10_15_7) AppleWebKit/537.36 (KHTML, like Gecko) Chrome/122.0.0.0 Safari/537.36" version="24.0.0" etag="4nOMFPUODiLuyEvmRp3F" type="github">
  <diagram name="第 1 页" id="Vdfozk7uvms10Qj7DWLC">
    <mxGraphModel>
      <root>
        <mxCell id="0" />
        <mxCell id="1" parent="0" />
      </root>
    </mxGraphModel>
  </diagram>
</mxfile>
